# xmcd CD Database Entry
#
# Track frame offsets:
# 150
# 19545
# 38552
# 56382
# 77012
# 96435
# 116250
# 131327
# 146734
# 166843
# 188207
#
# Disc length: 2758 seconds
#
# Revision: 2
# Processed by: cddbd v1.5PL3 Copyright (c) Steve Scherf et al.
# Submitted via: tcd 2.0b
#
DISCID=820ac40b
DTITLE=Ricardo Montaner/ SUMA
DYEAR=1900
DGENRE=
TTITLE0=Tu Cara
TTITLE1=Yo Puedo Hacer
TTITLE2=Respirando La Luna
TTITLE3=Verte Dormida
TTITLE4=Suma
TTITLE5=La Vida
TTITLE6=Ya No Vale La Pena
TTITLE7=Lloras
TTITLE8=Si Tuvieras Que Elegir
TTITLE9=Urgente
TTITLE10=Yo Puedo Hacer
EXTD=
EXTT0=
EXTT1=
EXTT2=
EXTT3=
EXTT4=
EXTT5=
EXTT6=
EXTT7=
EXTT8=
EXTT9=
EXTT10=
PLAYORDER=
